<svg xmlns="http://www.w3.org/2000/svg" xmlns:xlink="http://www.w3.org/1999/xlink" width="376" height="158" viewBox="0 0 376 158"><defs><style>.a{fill:url(#a);}.b{fill:#41a1c8;opacity:0.3;}.c{fill:#fff;opacity:0.1;}</style><linearGradient id="a" x1="0.462" y1="0.965" x2="0.787" gradientUnits="objectBoundingBox"><stop offset="0" stop-color="#074673"/><stop offset="1" stop-color="#41a1c8"/></linearGradient></defs><rect class="a" width="375" height="157" transform="translate(0 0)"/><g transform="translate(0 0)"><path class="b" d="M4342.983,2209A86.521,86.521,0,0,1,4499,2178.8V2209Z" transform="translate(-4123 -2051)"/><path class="b" d="M4407,2212.931h-50.908a86.04,86.04,0,0,1,2.316-105.965A87.062,87.062,0,0,1,4407,2077v135.93Z" transform="translate(-4032 -2055)"/><path class="c" d="M4438.5,2250h-.5V2115h77.587A89.092,89.092,0,0,1,4528,2160.5a90.268,90.268,0,0,1-1.818,18.038,89.005,89.005,0,0,1-13.466,32,89.781,89.781,0,0,1-39.378,32.427,89.121,89.121,0,0,1-16.8,5.215A90.153,90.153,0,0,1,4438.5,2250Z" transform="translate(-4438 -2115)"/><path class="c" d="M4436.5,2307a89.571,89.571,0,0,1-85.814-64h171.629a89.414,89.414,0,0,1-85.815,64Z" transform="translate(-4347 -2243)"/></g></svg>