<svg xmlns="http://www.w3.org/2000/svg" width="23.833" height="23.833" viewBox="0 0 23.833 23.833"><defs><style>.a{fill:#caced5;stroke:#fdfdfe;stroke-width:0.1px;}</style></defs><g transform="translate(0.05 0.05)"><g transform="translate(9.183 0)"><g transform="translate(0 0)"><path class="a" d="M212.4.262a.894.894,0,0,0-1.265,0L198.372,13.023a.894.894,0,1,0,1.265,1.265L212.4,1.527A.894.894,0,0,0,212.4.262Z" transform="translate(-198.11 0)"/></g></g><g transform="translate(0 3.041)"><path class="a" d="M19.8,73.688a.894.894,0,0,0-.894.894v9.929H1.789V67.4h9.929a.894.894,0,0,0,0-1.789H.894A.894.894,0,0,0,0,66.5v18.9a.894.894,0,0,0,.894.894H19.8a.894.894,0,0,0,.894-.894V74.583A.894.894,0,0,0,19.8,73.688Z" transform="translate(0 -65.608)"/></g><g transform="translate(15.474 0)"><path class="a" d="M341.194,0h-6.47a.894.894,0,0,0,0,1.789H340.3V7.364a.894.894,0,0,0,1.789,0V.894A.894.894,0,0,0,341.194,0Z" transform="translate(-333.83)"/></g></g></svg>