<svg xmlns="http://www.w3.org/2000/svg" width="31.141" height="21.201" viewBox="0 0 31.141 21.201"><defs><style>.a{fill:#caced5;stroke:#fdfdfe;}</style></defs><g transform="translate(0.5 0.5)"><g transform="translate(0 0)"><path class="a" d="M4.29,92.869H18.84a1.256,1.256,0,0,0,0-2.512H4.29l2.88-2.88A1.256,1.256,0,0,0,5.394,85.7L.37,90.725c-.029.029-.057.06-.083.092-.012.014-.022.03-.033.045s-.027.035-.04.054-.022.036-.033.055-.021.033-.03.051-.018.038-.027.057-.018.036-.025.054-.014.037-.021.056-.015.039-.021.06-.01.038-.015.057-.011.041-.015.062-.007.044-.01.067-.006.036-.008.055a1.264,1.264,0,0,0,0,.248c0,.019.005.037.008.055s.006.045.01.067.01.041.015.062.009.038.015.057.014.04.021.06.013.038.021.056.017.036.025.054.017.038.027.057.02.034.03.051.021.037.033.055.026.036.04.054.022.03.033.045c.026.032.054.062.083.091h0l5.023,5.023A1.256,1.256,0,1,0,7.17,95.749Z" transform="translate(-0.002 -85.334)"/><path class="a" d="M190.476,220.412c.012-.015.022-.03.034-.045s.027-.035.04-.054.022-.037.033-.055.021-.033.03-.05.019-.038.028-.057.017-.036.025-.054.014-.038.021-.056.015-.039.021-.06.01-.038.015-.057.011-.041.015-.062.007-.044.01-.067.006-.036.008-.055a1.26,1.26,0,0,0,0-.248c0-.019-.005-.037-.008-.055s-.006-.045-.01-.067-.01-.041-.015-.062-.009-.038-.015-.057-.014-.04-.021-.06-.013-.038-.021-.056-.017-.036-.025-.054-.018-.038-.028-.057-.02-.034-.03-.05-.021-.037-.033-.055-.026-.036-.04-.054-.022-.03-.034-.045q-.039-.047-.082-.091h0L185.37,213.7a1.256,1.256,0,0,0-1.776,1.776l2.88,2.88h-14.55a1.256,1.256,0,0,0,0,2.512h14.55l-2.88,2.88a1.256,1.256,0,1,0,1.776,1.776l5.023-5.023h0Q190.437,220.459,190.476,220.412Z" transform="translate(-160.62 -205.801)"/></g></g></svg>