<svg xmlns="http://www.w3.org/2000/svg" width="17.619" height="14.815" viewBox="0 0 17.619 14.815"><defs><style>.a{fill:none;stroke:#0d4771;stroke-linecap:round;stroke-linejoin:round;stroke-width:1.7px;}</style></defs><g transform="translate(-0.65 -3.56)"><path class="a" d="M13.077,26.842V25.394A2.894,2.894,0,0,0,10.183,22.5H4.394A2.894,2.894,0,0,0,1.5,25.394v1.447" transform="translate(0 -9.317)"/><path class="a" d="M13.289,7.394A2.894,2.894,0,1,1,10.394,4.5a2.894,2.894,0,0,1,2.894,2.894Z" transform="translate(-3.106 0)"/><path class="a" d="M32.171,26.942V25.5A2.894,2.894,0,0,0,30,22.7" transform="translate(-14.752 -9.418)"/><path class="a" d="M24,4.7A2.894,2.894,0,0,1,24,10.3" transform="translate(-11.646 -0.101)"/></g></svg>