<svg xmlns="http://www.w3.org/2000/svg" width="32.181" height="23.733" viewBox="0 0 32.181 23.733"><defs><style>.a{fill:#caced5;}</style></defs><path class="a" d="M118.091,88.682a3.466,3.466,0,1,0-3.466-3.466A3.466,3.466,0,0,0,118.091,88.682Zm0-5.585a2.125,2.125,0,1,1-2.125,2.125A2.125,2.125,0,0,1,118.091,83.1Zm0,0" transform="translate(-108.477 -77.084)"/><path class="a" d="M85.323,234.872a5.2,5.2,0,0,0-3.768,1.576A5.561,5.561,0,0,0,80,240.383a.672.672,0,0,0,.67.67h9.306a.672.672,0,0,0,.67-.67,5.561,5.561,0,0,0-1.555-3.935A5.2,5.2,0,0,0,85.323,234.872Zm-3.935,4.841a4.1,4.1,0,0,1,1.126-2.326,3.95,3.95,0,0,1,5.618,0,4.121,4.121,0,0,1,1.126,2.326Zm0,0" transform="translate(-75.709 -221.993)"/><path class="a" d="M28.829-5.25H3.352A3.354,3.354,0,0,0,0-1.9V15.131a3.354,3.354,0,0,0,3.352,3.352H28.829a3.354,3.354,0,0,0,3.352-3.352V-1.9A3.354,3.354,0,0,0,28.829-5.25ZM30.84,15.131a2.017,2.017,0,0,1-2.011,2.011H3.352a2.017,2.017,0,0,1-2.011-2.011V-1.9A2.017,2.017,0,0,1,3.352-3.909H28.829A2.017,2.017,0,0,1,30.84-1.9Zm0,0" transform="translate(0 5.25)"/><path class="a" d="M357.106,203.5H349.3a.67.67,0,1,0,0,1.341h7.811a.67.67,0,1,0,0-1.341Zm0,0" transform="translate(-329.927 -192.304)"/><path class="a" d="M357.106,283.5H349.3a.67.67,0,1,0,0,1.341h7.811a.67.67,0,1,0,0-1.341Zm0,0" transform="translate(-329.927 -268.013)"/><path class="a" d="M357.106,123.5H349.3a.67.67,0,1,0,0,1.341h7.811a.67.67,0,1,0,0-1.341Zm0,0" transform="translate(-329.927 -116.595)"/></svg>