<svg xmlns="http://www.w3.org/2000/svg" width="23.733" height="23.733" viewBox="0 0 23.733 23.733"><defs><style>.a{fill:#caced5;}</style></defs><path class="a" d="M12.611,23.733H11.122a2.187,2.187,0,0,1-2.185-2.185v-.5a9.581,9.581,0,0,1-1.488-.618l-.357.357a2.185,2.185,0,0,1-3.09,0L2.949,19.731a2.185,2.185,0,0,1,0-3.09l.357-.357A9.582,9.582,0,0,1,2.689,14.8h-.5A2.187,2.187,0,0,1,0,12.611v-1.49A2.187,2.187,0,0,1,2.185,8.937h.5a9.584,9.584,0,0,1,.618-1.488l-.357-.357a2.185,2.185,0,0,1,0-3.09L4,2.949a2.185,2.185,0,0,1,3.09,0l.357.357a9.59,9.59,0,0,1,1.488-.618v-.5A2.187,2.187,0,0,1,11.122,0h1.489A2.187,2.187,0,0,1,14.8,2.185v.5a9.581,9.581,0,0,1,1.488.618l.357-.357a2.185,2.185,0,0,1,3.09,0L20.784,4a2.185,2.185,0,0,1,0,3.09l-.357.357a9.582,9.582,0,0,1,.618,1.488h.5a2.187,2.187,0,0,1,2.185,2.185v1.49A2.187,2.187,0,0,1,21.548,14.8h-.5a9.584,9.584,0,0,1-.618,1.488l.357.357a2.185,2.185,0,0,1,0,3.09l-1.053,1.053a2.185,2.185,0,0,1-3.09,0l-.357-.357a9.59,9.59,0,0,1-1.488.618v.5A2.187,2.187,0,0,1,12.611,23.733Zm-4.93-4.767a8.2,8.2,0,0,0,2.124.882.7.7,0,0,1,.522.673v1.027a.8.8,0,0,0,.794.794h1.489a.8.8,0,0,0,.794-.794V20.522a.7.7,0,0,1,.522-.673,8.2,8.2,0,0,0,2.124-.882.7.7,0,0,1,.846.107l.727.727a.794.794,0,0,0,1.123,0L19.8,18.748a.794.794,0,0,0,0-1.123l-.728-.728a.7.7,0,0,1-.107-.846,8.2,8.2,0,0,0,.882-2.124.7.7,0,0,1,.673-.522h1.027a.8.8,0,0,0,.794-.794v-1.49a.8.8,0,0,0-.794-.794H20.522a.7.7,0,0,1-.673-.522,8.2,8.2,0,0,0-.882-2.124.7.7,0,0,1,.107-.846l.727-.727a.794.794,0,0,0,0-1.123L18.748,3.933a.794.794,0,0,0-1.123,0L16.9,4.66a.7.7,0,0,1-.846.107,8.2,8.2,0,0,0-2.124-.882.7.7,0,0,1-.522-.673V2.185a.8.8,0,0,0-.794-.794H11.122a.8.8,0,0,0-.794.794V3.211a.7.7,0,0,1-.522.673,8.2,8.2,0,0,0-2.124.882.7.7,0,0,1-.846-.107l-.727-.727a.794.794,0,0,0-1.123,0L3.933,4.986a.794.794,0,0,0,0,1.123l.728.728a.7.7,0,0,1,.107.846,8.2,8.2,0,0,0-.882,2.124.7.7,0,0,1-.673.522H2.185a.8.8,0,0,0-.794.794v1.49a.8.8,0,0,0,.794.794H3.211a.7.7,0,0,1,.673.522,8.2,8.2,0,0,0,.882,2.124.7.7,0,0,1-.107.846l-.727.727a.794.794,0,0,0,0,1.123L4.986,19.8a.794.794,0,0,0,1.123,0l.727-.728a.7.7,0,0,1,.846-.107Z" transform="translate(0 0)"/><path class="a" d="M149.764,154.928a5.164,5.164,0,1,1,5.164-5.164A5.17,5.17,0,0,1,149.764,154.928Zm0-8.937a3.773,3.773,0,1,0,3.773,3.773A3.777,3.777,0,0,0,149.764,145.991Z" transform="translate(-137.897 -137.897)"/></svg>