<?xml version="1.0" encoding="utf-8"?>
<!-- Generator: Adobe Illustrator 24.0.2, SVG Export Plug-In . SVG Version: 6.00 Build 0)  -->
<svg version="1.1" id="Layer_1" xmlns="http://www.w3.org/2000/svg" xmlns:xlink="http://www.w3.org/1999/xlink" x="0px" y="0px"
	 viewBox="0 0 841.9 595.3" style="enable-background:new 0 0 841.9 595.3;" xml:space="preserve">
<style type="text/css">
	.st0{fill:url(#SVGID_1_);}
	.st1{fill:url(#SVGID_2_);}
	.st2{fill:url(#SVGID_3_);}
	.st3{fill:#44004E;}
	.st4{display:none;fill:#44004E;}
	.st5{display:none;}
	.st6{display:inline;fill:#44004E;}
</style>
<g>
	<g>
		<g>
			<g>
				
					<linearGradient id="SVGID_1_" gradientUnits="userSpaceOnUse" x1="504.4771" y1="59.0738" x2="319.4478" y2="343.9943" gradientTransform="matrix(1 0 0 -1 0 598)">
					<stop  offset="0" style="stop-color:#44004E"/>
					<stop  offset="7.280000e-02" style="stop-color:#480052"/>
					<stop  offset="0.1508" style="stop-color:#55005E"/>
					<stop  offset="0.2313" style="stop-color:#6B0073"/>
					<stop  offset="0.3135" style="stop-color:#89008F"/>
					<stop  offset="0.397" style="stop-color:#AF00B4"/>
					<stop  offset="0.4804" style="stop-color:#DE00E0"/>
					<stop  offset="0.5325" style="stop-color:#FF00FF"/>
				</linearGradient>
				<path class="st0" d="M502.9,540l-158.6-2.6V291.3l77.4-103.7l81.2,103.7L502.9,540L502.9,540z"/>
				
					<linearGradient id="SVGID_2_" gradientUnits="userSpaceOnUse" x1="628.9628" y1="566.7188" x2="481.005" y2="263.3605" gradientTransform="matrix(1 0 0 -1 0 598)">
					<stop  offset="0" style="stop-color:#44004E"/>
					<stop  offset="7.280000e-02" style="stop-color:#480052"/>
					<stop  offset="0.1508" style="stop-color:#55005E"/>
					<stop  offset="0.2313" style="stop-color:#6B0073"/>
					<stop  offset="0.3135" style="stop-color:#89008F"/>
					<stop  offset="0.397" style="stop-color:#AF00B4"/>
					<stop  offset="0.4804" style="stop-color:#DE00E0"/>
					<stop  offset="0.5325" style="stop-color:#FF00FF"/>
				</linearGradient>
				<path class="st1" d="M497,294.5l-128.5-14.7l49.2-122.1l1.5-0.9L633.1,33.3l77.1,138.1L497,294.5z"/>
				
					<linearGradient id="SVGID_3_" gradientUnits="userSpaceOnUse" x1="129.398" y1="419.6854" x2="467.4103" y2="440.3585" gradientTransform="matrix(1 0 0 -1 0 598)">
					<stop  offset="0" style="stop-color:#44004E"/>
					<stop  offset="7.280000e-02" style="stop-color:#480052"/>
					<stop  offset="0.1508" style="stop-color:#55005E"/>
					<stop  offset="0.2313" style="stop-color:#6B0073"/>
					<stop  offset="0.3135" style="stop-color:#89008F"/>
					<stop  offset="0.397" style="stop-color:#AF00B4"/>
					<stop  offset="0.4804" style="stop-color:#DE00E0"/>
					<stop  offset="0.5325" style="stop-color:#FF00FF"/>
				</linearGradient>
				<path class="st2" d="M344.5,298.3L129.1,173.9l81.6-133.7l213.8,124.6l50.4,114.8L344.5,298.3z"/>
			</g>
			<path class="st3" d="M421.7,562c-29.4,0-51.8-4.6-65.5-8.5c-9.3-2.6-15.7-11.3-15.7-21l-0.1-239.4c-0.4-35-14.8-64.8-41.5-86.1
				c-36.8-29.2-94-39.9-149.3-27.8c-7.9,1.7-15.9-0.9-21.2-7c-5.3-6.1-6.8-14.3-4-21.9c6.3-16.9,14.4-37,26.3-57.6
				c14.7-25.5,30-42.5,40.2-52.4c6.9-6.7,17.7-8,26.1-3.2l202,116.6l0.1-0.1l5.4,3.2v0.1c30.9,17.1,63.6,19.5,95.3,7
				c43.7-17.2,81.5-61.4,98.8-115.4c2.5-7.7,8.7-13.3,16.7-14.8c7.9-1.5,15.8,1.3,21,7.5c11.5,13.9,24.9,31,36.8,51.5
				c14.7,25.5,21.9,47.2,25.3,61l0,0c2.4,9.3-1.9,19.3-10.3,24.1L504.7,295.3l-5.5,3.2c-29.5,17.9-47.6,45.3-52.5,78.9
				c-6.7,46.2,12.8,100.8,50.7,142.4c5.4,6,7.1,14.2,4.5,21.8c-2.6,7.7-9,13-17,14.4C466.8,558.9,445.4,562,421.7,562z"/>
		</g>
		<path class="st4" d="M670.7,326.7c-17.6,0-26.8-10.3-26.8-29.8v-76c0-1.4,1-2.7,2.3-3.1c2-0.6,5.3-1.3,9.8-1.3
			c4.5,0,7.7,0.7,9.6,1.2c1.4,0.4,2.3,1.7,2.3,3.1v78.6c0,3.2,0.8,5.3,2.5,6.4c3,1.9,8.1,0,10.2-1c1.3-0.6,2.9-0.2,3.9,1
			c1,1.2,2.4,3.1,3.8,5.7c1.4,2.6,2.3,5,2.9,6.5l0,0c0.5,1.5-0.1,3.1-1.5,3.9C686.4,323.7,679.8,326.7,670.7,326.7z"/>
		<path class="st4" d="M440.6,326.1c-4.5,0-7.7-0.7-9.6-1.2c-1.4-0.4-2.4-1.7-2.4-3.1v-40c0-4.2-0.9-7.4-2.7-9.7
			c-1.8-2.2-4.4-3.3-8.1-3.3c-4.2,0-7.4,1.4-9.9,4.3s-3.7,6.6-3.7,11.1v37.7c0,1.4-1,2.7-2.4,3.1c-1.9,0.5-5,1.2-9.3,1.2
			c-4.3,0-7.4-0.6-9.2-1.2c-1.4-0.4-2.4-1.7-2.4-3.1v-40c0-4.2-0.9-7.4-2.7-9.7c-1.8-2.2-4.4-3.3-8.1-3.3c-4.1,0-7.3,1.4-9.8,4.3
			c-2.5,2.9-3.8,6.6-3.8,11.1v37.6c0,1.4-1,2.7-2.3,3.1c-2,0.6-5.3,1.3-9.8,1.3c-4.5,0-7.7-0.7-9.6-1.2c-1.4-0.4-2.4-1.7-2.4-3.1
			V252c0-1.5,1-2.8,2.4-3.1c1.6-0.4,4.1-0.9,7.5-0.9c4.1,0,6.8,0.7,8,1.1c0.8,0.3,1.4,0.8,1.8,1.5l3.5,6.4c2.2-2.5,5-4.7,8.3-6.4
			c3.6-1.9,8-2.9,12.9-2.9c3,0,5.7,0.3,8,1c2.3,0.6,4.4,1.5,6.2,2.5c1.8,1,3.3,2.1,4.7,3.4c1.1,1,2,2,2.8,2.9c3-3,6.5-5.4,10.7-7.1
			c4.4-1.8,9-2.7,13.8-2.7c9.5,0,17,2.8,22,8.2c5.1,5.4,7.6,12.9,7.6,22.2v43.5c0,1.4-1,2.7-2.3,3.1
			C448.4,325.4,445.1,326.1,440.6,326.1z"/>
		<path class="st4" d="M592.7,326.7c-26.1,0-40.1-20.6-40.1-40c0-10.4,3.8-20.2,10.6-27.6c7.5-8,17.7-12.2,29.5-12.2
			s22,4.2,29.4,12.2c6.8,7.3,10.5,17.1,10.5,27.6C632.7,306.1,618.7,326.7,592.7,326.7z M592.7,268c-11.6,0-16.9,9.7-16.9,18.8
			c0,12.3,8.7,18.9,16.9,18.9c10.5,0,16.8-9.6,16.8-18.9C609.5,277.4,603.7,268,592.7,268z"/>
		<path class="st4" d="M194.3,326.9c-5.2,0-10.1-0.5-14.4-1.5c-4.3-1-8.3-2.3-11.7-4c-3.5-1.6-6.6-3.5-9.4-5.6
			c-2.2-1.7-4.2-3.4-5.9-5.1c-1-1-1.2-2.6-0.5-3.9c1.1-2,3-5,5.7-8c2.7-3,5.3-4.9,7.1-6c1.3-0.8,2.9-0.6,4,0.5c1,1,2.2,2,3.4,3.1
			c1.8,1.5,3.8,2.8,6,4.1c2.2,1.2,4.6,2.2,7.2,3c2.6,0.8,5.4,1.1,8.3,1.1c1.7,0,3.4-0.3,5.1-0.8c1.7-0.5,3.2-1.2,4.6-2.2
			c1.4-0.9,2.5-2.1,3.3-3.4c0.8-1.3,1.2-2.7,1.2-4.4c0-3.6-1.7-6.3-5.3-8.3c-3.7-2.1-9.6-4.2-17.6-6.3c-4-1-7.8-2.3-11.2-4.1
			c-3.4-1.8-6.4-4-8.9-6.5c-2.5-2.6-4.5-5.5-5.9-8.8c-1.4-3.3-2.1-7-2.1-11.1c0-4.4,0.8-8.7,2.4-12.6c1.6-3.9,4.1-7.5,7.3-10.5
			c3.2-3,7.3-5.4,12.1-7.2c4.8-1.7,10.5-2.6,17.1-2.6c20.4,0,34.8,12.9,34.9,13.1c1,1,1.3,2.5,0.7,3.8c-0.7,1.5-2.1,3.9-4.6,6.9
			c-2.6,3.1-5.3,5-7.1,6c-1.1,0.6-2.6,0.5-3.6-0.3c-0.8-0.6-1.8-1.3-2.8-2.1c-1.5-1.1-3.1-2.1-5-3c-1.8-0.9-3.9-1.7-6-2.3
			c-2.2-0.6-4.5-0.9-6.9-0.9c-1.6,0-3.2,0.3-4.7,0.8c-1.5,0.5-2.9,1.2-4.2,2c-1.2,0.8-2.2,1.8-2.9,2.9c-0.7,1.1-1.1,2.2-1.1,3.4
			c0,3.3,1.7,5.9,5.3,7.9c3.7,2.1,8.8,4,15.3,5.4c3.9,1,7.7,2.3,11.5,3.9c3.8,1.6,7.2,3.8,10.1,6.5c3,2.7,5.4,6,7.2,9.9
			c1.8,3.9,2.7,8.6,2.7,14.1c0,4.8-1.1,9.3-3.2,13.3c-2.1,4-5.1,7.6-8.7,10.5c-3.6,3-8,5.3-12.9,6.9
			C205.4,326,200,326.9,194.3,326.9z"/>
		<path class="st4" d="M501.9,326.6c-14.8,0-27.5-3-32.3-4.2c-1.4-0.4-2.4-1.7-2.4-3.1v-98.4c0-1.4,1-2.7,2.3-3.1
			c2-0.6,5.3-1.3,9.8-1.3c4.5,0,7.7,0.7,9.6,1.2c1.4,0.4,2.4,1.7,2.4,3.1v33c2.5-2.1,8.7-6.1,18.5-6.1c20,0,33.4,15.1,33.4,37.6
			C543.1,309.7,526.2,326.6,501.9,326.6z M491.2,305c1.7,0.5,6,1.3,9.7,1.3c8.7,0,18-5.3,18-20.2c0-13.1-7.4-17.7-13.8-17.7
			c-6.4,0-13.9,2.5-13.9,14.4L491.2,305L491.2,305z"/>
	</g>
	<g class="st5">
		<path class="st6" d="M523.1,377.8h-3.8v-25.7h14.5v3.3h-10.6v8.4h9.9v3.3h-9.9L523.1,377.8L523.1,377.8z"/>
		<path class="st6" d="M546.8,358c0.8,0,1.5,0.1,2.1,0.2l-0.4,3.6c-0.6-0.2-1.3-0.3-1.9-0.3c-1,0-1.9,0.2-2.7,0.7s-1.5,1.2-2,2.1
			c-0.5,0.9-0.8,2-0.8,3.3v10.2h-3.8v-19.4h3l0.5,3.5h0.1c0.6-1,1.4-1.9,2.4-2.7S545.4,358,546.8,358z"/>
		<path class="st6" d="M568.2,368.1c0,3.2-0.8,5.7-2.5,7.5c-1.7,1.8-3.9,2.6-6.7,2.6c-1.8,0-3.3-0.4-4.7-1.2
			c-1.4-0.8-2.4-1.9-3.2-3.4s-1.2-3.3-1.2-5.5c0-3.2,0.8-5.7,2.5-7.4c1.6-1.7,3.9-2.6,6.7-2.6c1.8,0,3.3,0.4,4.7,1.2
			s2.4,1.9,3.2,3.4C567.8,364.1,568.2,365.9,568.2,368.1z M554,368.1c0,2.2,0.4,3.9,1.2,5.1c0.8,1.2,2.1,1.8,3.9,1.8
			s3.1-0.6,3.9-1.8c0.8-1.2,1.2-2.9,1.2-5.1c0-2.2-0.4-3.9-1.2-5.1c-0.8-1.2-2.2-1.8-4-1.8c-1.8,0-3.1,0.6-3.9,1.8
			C554.4,364.2,554,365.9,554,368.1z"/>
		<path class="st6" d="M594.2,358c2.2,0,3.8,0.6,4.9,1.7s1.7,2.9,1.7,5.4v12.6H597v-12.1c0-3-1.2-4.5-3.6-4.5c-1.7,0-3,0.5-3.7,1.6
			c-0.7,1.1-1.1,2.6-1.1,4.6v10.4h-3.8v-12.1c0-3-1.2-4.5-3.7-4.5c-1.8,0-3.1,0.6-3.8,1.8c-0.7,1.2-1,2.9-1,5.1v9.8h-3.8v-19.4h3
			l0.5,2.6h0.2c0.6-1,1.4-1.8,2.4-2.2s2.1-0.7,3.3-0.7c3,0,4.9,1,5.9,3.1h0.3c0.6-1.1,1.5-1.8,2.6-2.4
			C591.8,358.3,593,358,594.2,358z"/>
		<path class="st6" d="M636.3,377.8h-4.7l-13-20.8h-0.1c0,1,0.1,2.1,0.2,3.3s0.1,2.5,0.1,3.8v13.7h-3.5v-25.7h4.7l13,20.7h0.1
			c0-0.5,0-1.1-0.1-1.9c0-0.8-0.1-1.6-0.1-2.5s0-1.7-0.1-2.5v-13.8h3.6L636.3,377.8L636.3,377.8z"/>
		<path class="st6" d="M657,377.8h-14.5v-25.7H657v3.3h-10.6v7.3h9.9v3.3h-9.9v8.4H657L657,377.8L657,377.8z"/>
		<path class="st3" d="M673.2,377.8l-7.8-21.9h-0.1c0,0.5,0.1,1.2,0.1,2s0.1,1.7,0.1,2.6c0,1,0,1.9,0,2.8v14.5H662v-25.7h5.5
			l7.4,20.6h0.1l7.6-20.6h5.5v25.7h-3.8v-14.7c0-0.8,0-1.7,0-2.6c0-0.9,0.1-1.7,0.1-2.5c0-0.8,0.1-1.5,0.1-2h-0.1l-8,21.8
			L673.2,377.8L673.2,377.8z"/>
	</g>
</g>
</svg>
